<?xml version="1.0" encoding="UTF-8"?>
<svg width="614" height="279" viewBox="0 0 614 279" xmlns="http://www.w3.org/2000/svg">
  <g transform="translate(20,20)"><path d="M12.24 116.16L-0.12 116.16L37.92 32.16L49.80 32.16L87.96 116.16L75.36 116.16L41.40 38.88L46.20 38.88L12.24 116.16ZM70.08 95.16L16.08 95.16L19.32 85.56L66.60 85.56L70.08 95.16ZM165.96 117.12L165.96 117.12Q156.24 117.12 148.08 113.94Q139.92 110.76 133.92 104.94Q127.92 99.12 124.56 91.32Q121.20 83.52 121.20 74.16L121.20 74.16Q121.20 64.80 124.56 57Q127.92 49.20 133.98 43.38Q140.04 37.56 148.20 34.38Q156.36 31.20 166.20 31.20L166.20 31.20Q176.16 31.20 184.44 34.44Q192.72 37.68 198.48 44.16L198.48 44.16L191.04 51.60Q185.88 46.56 179.82 44.22Q173.76 41.88 166.68 41.88L166.68 41.88Q159.48 41.88 153.30 44.28Q147.12 46.68 142.62 51Q138.12 55.32 135.66 61.26Q133.20 67.20 133.20 74.16L133.20 74.16Q133.20 81 135.66 86.94Q138.12 92.88 142.62 97.26Q147.12 101.64 153.24 104.04Q159.36 106.44 166.56 106.44L166.56 106.44Q173.28 106.44 179.46 104.34Q185.64 102.24 190.92 97.32L190.92 97.32L197.76 106.44Q191.52 111.72 183.18 114.42Q174.84 117.12 165.96 117.12ZM197.76 73.68L197.76 106.44L186.24 104.88L186.24 73.68L197.76 73.68ZM247.92 116.16L235.56 116.16L273.60 32.16L285.48 32.16L323.64 116.16L311.04 116.16L277.08 38.88L281.88 38.88L247.92 116.16ZM305.76 95.16L251.76 95.16L255.00 85.56L302.28 85.56L305.76 95.16ZM375.72 116.16L363.72 116.16L363.72 32.16L396.48 32.16Q407.52 32.16 415.32 35.64Q423.12 39.12 427.32 45.72Q431.52 52.32 431.52 61.44L431.52 61.44Q431.52 70.56 427.32 77.10Q423.12 83.64 415.32 87.18Q407.52 90.72 396.48 90.72L396.48 90.72L370.32 90.72L375.72 85.08L375.72 116.16ZM375.72 36.60L375.72 86.28L370.32 80.28L396.12 80.28Q407.64 80.28 413.58 75.36Q419.52 70.44 419.52 61.44L419.52 61.44Q419.52 52.44 413.58 47.52Q407.64 42.60 396.12 42.60L396.12 42.60L370.32 42.60L375.72 36.60ZM538.92 116.16L477.96 116.16L477.96 32.16L537.24 32.16L537.24 42.60L489.96 42.60L489.96 105.72L538.92 105.72L538.92 116.16ZM532.08 78.60L488.88 78.60L488.88 68.40L532.08 68.40L532.08 78.60ZM527.16 21.12L488.04 21.12L488.04 13.92L527.16 13.92L527.16 21.12Z" fill="#FFFFFF"/></g>
  <g transform="translate(253.848,180.28)"><path d="M34.56 61.95L2.37 61.95L2.37 57.60L20.61 40Q23.04 37.70 24.22 35.94Q25.41 34.18 25.82 32.67Q26.24 31.17 26.24 29.76L26.24 29.76Q26.24 26.30 23.81 24.32Q21.38 22.34 16.70 22.34L16.70 22.34Q13.12 22.34 10.24 23.52Q7.36 24.70 5.25 27.20L5.25 27.20L0.90 23.42Q3.46 20.16 7.78 18.40Q12.10 16.64 17.28 16.64L17.28 16.64Q21.95 16.64 25.41 18.14Q28.86 19.65 30.75 22.46Q32.64 25.28 32.64 29.12L32.64 29.12Q32.64 31.30 32.06 33.41Q31.49 35.52 29.89 37.89Q28.29 40.26 25.28 43.20L25.28 43.20L9.02 58.88L7.49 56.38L34.56 56.38L34.56 61.95ZM73.34 62.46L73.34 62.46Q67.39 62.46 63.17 59.84Q58.94 57.22 56.74 52.26Q54.53 47.30 54.53 40.13L54.53 40.13Q54.53 32.51 57.22 27.26Q59.90 22.02 64.70 19.33Q69.50 16.64 75.71 16.64L75.71 16.64Q78.91 16.64 81.82 17.28Q84.74 17.92 86.85 19.26L86.85 19.26L84.42 24.26Q82.69 23.04 80.48 22.59Q78.27 22.14 75.84 22.14L75.84 22.14Q68.99 22.14 64.96 26.40Q60.93 30.66 60.93 39.04L60.93 39.04Q60.93 40.38 61.06 42.24Q61.18 44.10 61.70 45.89L61.70 45.89L59.52 43.71Q60.48 40.77 62.56 38.75Q64.64 36.74 67.55 35.74Q70.46 34.75 73.86 34.75L73.86 34.75Q78.34 34.75 81.79 36.42Q85.25 38.08 87.23 41.12Q89.22 44.16 89.22 48.32L89.22 48.32Q89.22 52.61 87.10 55.81Q84.99 59.01 81.41 60.74Q77.82 62.46 73.34 62.46ZM73.09 57.28L73.09 57.28Q76.03 57.28 78.24 56.19Q80.45 55.10 81.73 53.15Q83.01 51.20 83.01 48.58L83.01 48.58Q83.01 44.61 80.26 42.27Q77.50 39.94 72.77 39.94L72.77 39.94Q69.70 39.94 67.39 41.09Q65.09 42.24 63.78 44.19Q62.46 46.14 62.46 48.64L62.46 48.64Q62.46 50.94 63.68 52.90Q64.90 54.85 67.26 56.06Q69.63 57.28 73.09 57.28Z" fill="#FFFFFF"/></g>
</svg>