<?xml version="1.0" encoding="UTF-8"?>
<svg width="606" height="179" viewBox="0 0 606 179" xmlns="http://www.w3.org/2000/svg">
  <g transform="translate(16,16)">
    <path d="M12.24 116.16L-0.12 116.16L37.92 32.16L49.80 32.16L87.96 116.16L75.36 116.16L41.40 38.88L46.20 38.88L12.24 116.16ZM70.08 95.16L16.08 95.16L19.32 85.56L66.60 85.56L70.08 95.16ZM165.96 117.12L165.96 117.12Q156.24 117.12 148.08 113.94Q139.92 110.76 133.92 104.94Q127.92 99.12 124.56 91.32Q121.20 83.52 121.20 74.16L121.20 74.16Q121.20 64.80 124.56 57Q127.92 49.20 133.98 43.38Q140.04 37.56 148.20 34.38Q156.36 31.20 166.20 31.20L166.20 31.20Q176.16 31.20 184.44 34.44Q192.72 37.68 198.48 44.16L198.48 44.16L191.04 51.60Q185.88 46.56 179.82 44.22Q173.76 41.88 166.68 41.88L166.68 41.88Q159.48 41.88 153.30 44.28Q147.12 46.68 142.62 51Q138.12 55.32 135.66 61.26Q133.20 67.20 133.20 74.16L133.20 74.16Q133.20 81 135.66 86.94Q138.12 92.88 142.62 97.26Q147.12 101.64 153.24 104.04Q159.36 106.44 166.56 106.44L166.56 106.44Q173.28 106.44 179.46 104.34Q185.64 102.24 190.92 97.32L190.92 97.32L197.76 106.44Q191.52 111.72 183.18 114.42Q174.84 117.12 165.96 117.12ZM197.76 73.68L197.76 106.44L186.24 104.88L186.24 73.68L197.76 73.68ZM247.92 116.16L235.56 116.16L273.60 32.16L285.48 32.16L323.64 116.16L311.04 116.16L277.08 38.88L281.88 38.88L247.92 116.16ZM305.76 95.16L251.76 95.16L255.00 85.56L302.28 85.56L305.76 95.16ZM375.72 116.16L363.72 116.16L363.72 32.16L396.48 32.16Q407.52 32.16 415.32 35.64Q423.12 39.12 427.32 45.72Q431.52 52.32 431.52 61.44L431.52 61.44Q431.52 70.56 427.32 77.10Q423.12 83.64 415.32 87.18Q407.52 90.72 396.48 90.72L396.48 90.72L370.32 90.72L375.72 85.08L375.72 116.16ZM375.72 36.60L375.72 86.28L370.32 80.28L396.12 80.28Q407.64 80.28 413.58 75.36Q419.52 70.44 419.52 61.44L419.52 61.44Q419.52 52.44 413.58 47.52Q407.64 42.60 396.12 42.60L396.12 42.60L370.32 42.60L375.72 36.60ZM538.92 116.16L477.96 116.16L477.96 32.16L537.24 32.16L537.24 42.60L489.96 42.60L489.96 105.72L538.92 105.72L538.92 116.16ZM532.08 78.60L488.88 78.60L488.88 68.40L532.08 68.40L532.08 78.60ZM527.16 21.12L488.04 21.12L488.04 13.92L527.16 13.92L527.16 21.12Z" fill="#FFFFFF"/>
  </g>
</svg>