<svg width="24" height="24" viewBox="0 0 24 24" fill="none" xmlns="http://www.w3.org/2000/svg">
<path fill-rule="evenodd" clip-rule="evenodd" d="M20.2395 2.96299C19.4223 2.05506 18.3725 1.63932 17.0485 1.44153C15.7678 1.25021 14.1308 1.25022 12.0625 1.25024H11.9375C9.86922 1.25023 8.23221 1.25021 6.95147 1.44153C5.62747 1.63932 4.57769 2.05506 3.76055 2.96299C2.95359 3.85961 2.59338 4.99246 2.42018 6.42379C2.24998 7.83039 2.24999 9.63524 2.25 11.9481C2.24999 14.2609 2.24998 16.1701 2.42018 17.5767C2.59338 19.008 2.95359 20.1409 3.76055 21.0375C4.57769 21.9454 5.62747 22.3611 6.95147 22.5589C8.23221 22.7502 9.86921 22.7502 11.9375 22.7502H12.0625C14.1308 22.7502 15.7678 22.7502 17.0485 22.5589C18.3725 22.3611 19.4223 21.9454 20.2395 21.0375C21.0464 20.1409 21.4066 19.008 21.5798 17.5767C21.75 16.1701 21.75 14.2609 21.75 11.948C21.75 9.63523 21.75 7.83038 21.5798 6.42379C21.4066 4.99246 21.0464 3.8596 20.2395 2.96299ZM12 2.96123C13.289 2.96123 14.3541 2.96194 15.25 3.00002V9.82623C15.25 10.4742 15.2353 10.9547 15.1963 11.2289C15.0492 11.1806 14.8404 11.0703 14.5969 10.9038C14.0648 10.4872 12.9352 9.62799 12.6737 9.52458C12.4908 9.43137 12.2686 9.34839 12 9.34839C11.7314 9.34839 11.5092 9.43137 11.3263 9.52458C11.0564 9.63025 9.93171 10.4881 9.40312 10.9038C9.15961 11.0703 8.96192 11.177 8.81477 11.2253C8.77578 10.9511 8.75 10.4742 8.75 9.82623V3.00002C9.64594 2.96194 10.711 2.96123 12 2.96123Z" fill="#6E6E6E"/>
</svg>
