<svg width="16" height="16" viewBox="0 0 16 16" fill="none" xmlns="http://www.w3.org/2000/svg">
<path fill-rule="evenodd" clip-rule="evenodd" d="M7.79287 15.1217L7.7966 15.1234C7.92587 15.1809 8.0738 15.181 8.20307 15.1236L8.20553 15.1225C8.22067 15.1156 8.25793 15.0985 8.2802 15.088C8.32753 15.0658 8.3956 15.0331 8.4814 14.9902C8.65293 14.9044 8.89587 14.7776 9.18647 14.6108C9.7664 14.2778 10.542 13.7826 11.3201 13.1342C12.8595 11.8513 14.5 9.89057 14.5 7.33337C14.5 3.74352 11.5899 0.833374 8 0.833374C4.41015 0.833374 1.5 3.74352 1.5 7.33337C1.5 9.89057 3.14051 11.8513 4.67991 13.1342C5.45802 13.7826 6.23359 14.2778 6.81353 14.6108C7.10413 14.7776 7.34707 14.9044 7.5186 14.9902C7.60227 15.032 7.742 15.0978 7.79287 15.1217ZM8 4.66671C6.52724 4.66671 5.33333 5.86061 5.33333 7.33337C5.33333 8.80611 6.52724 10 8 10C9.47273 10 10.6667 8.80611 10.6667 7.33337C10.6667 5.86061 9.47273 4.66671 8 4.66671Z" fill="#A57865"/>
</svg>
